HIERARCHY
ROOT Hips
{
	OFFSET 36.867802 -21.303015 92.915199
	CHANNELS 6 Xposition Yposition Zposition Xrotation Yrotation Zrotation
	JOINT spine
	{
		OFFSET 0.000000 -0.429888 7.475601
		CHANNELS 3 Xrotation Yrotation Zrotation
		JOINT spine1
		{
			OFFSET 0.000000 0.000000 9.923012
			CHANNELS 3 Xrotation Yrotation Zrotation
			JOINT spine2
			{
				OFFSET 0.000000 -0.000002 9.508041
				CHANNELS 3 Xrotation Yrotation Zrotation
				JOINT Neck
				{
					OFFSET 0.000000 -1.163843 24.411102
					CHANNELS 3 Xrotation Yrotation Zrotation
					JOINT Head
					{
						OFFSET 0.000000 -0.000002 7.375229
						CHANNELS 3 Xrotation Yrotation Zrotation
						End Site
						{
							OFFSET 0.000000 5.887407 17.852203
						}
					}
				}
				JOINT RightShoulder
				{
					OFFSET -4.003559 0.557467 10.267899
					CHANNELS 3 Xrotation Yrotation Zrotation
					JOINT RightArm
					{
						OFFSET 0.000000 -0.000002 13.467300
						CHANNELS 3 Xrotation Yrotation Zrotation
						JOINT RightArmRoll
						{
							OFFSET 0.000000 -0.000002 6.798569
							CHANNELS 3 Xrotation Yrotation Zrotation
							JOINT RightForeArm
							{
								OFFSET 0.000000 -0.000004 19.801804
								CHANNELS 3 Xrotation Yrotation Zrotation
								JOINT RightForeArmRoll
								{
									OFFSET 0.000000 0.000000 7.629044
									CHANNELS 3 Xrotation Yrotation Zrotation
									JOINT RightHand
									{
										OFFSET 0.000000 -0.000002 15.309799
										CHANNELS 3 Xrotation Yrotation Zrotation
										End Site
										{
											OFFSET 0.000000 -0.000002 0.100006
										}
									}
								}
							}
						}
					}
				}
				JOINT LeftShoulder
				{
					OFFSET 4.003559 0.557467 10.267899
					CHANNELS 3 Xrotation Yrotation Zrotation
					JOINT LeftArm
					{
						OFFSET 0.000000 -0.000002 13.467300
						CHANNELS 3 Xrotation Yrotation Zrotation
						JOINT LeftArmRoll
						{
							OFFSET 0.000000 -0.000002 6.798569
							CHANNELS 3 Xrotation Yrotation Zrotation
							JOINT LeftForeArm
							{
								OFFSET 0.000000 -0.000004 19.801804
								CHANNELS 3 Xrotation Yrotation Zrotation
								JOINT LeftForeArmRoll
								{
									OFFSET 0.000000 0.000000 7.629044
									CHANNELS 3 Xrotation Yrotation Zrotation
									JOINT LeftHand
									{
										OFFSET 0.000000 -0.000002 15.309799
										CHANNELS 3 Xrotation Yrotation Zrotation
										End Site
										{
											OFFSET 0.000000 -0.000002 0.100006
										}
									}
								}
							}
						}
					}
				}
			}
		}
	}
	JOINT RightUpLeg
	{
		OFFSET -6.626091 1.019270 -1.215050
		CHANNELS 3 Xrotation Yrotation Zrotation
		JOINT RightUpLegRoll
		{
			OFFSET 0.000000 -0.000002 17.951698
			CHANNELS 3 Xrotation Yrotation Zrotation
			JOINT RightLeg
			{
				OFFSET 0.000000 0.000004 -22.230400
				CHANNELS 3 Xrotation Yrotation Zrotation
				JOINT RightLegRoll
				{
					OFFSET 0.000000 -0.000004 22.303200
					CHANNELS 3 Xrotation Yrotation Zrotation
					JOINT RightFoot
					{
						OFFSET 0.000000 -0.000004 18.563606
						CHANNELS 3 Xrotation Yrotation Zrotation
						JOINT RightToeBase
						{
							OFFSET 0.000000 -0.000002 15.518295
							CHANNELS 3 Xrotation Yrotation Zrotation
							End Site
							{
								OFFSET 0.006578 0.866261 7.515396
							}
						}
					}
				}
			}
		}
	}
	JOINT LeftUpLeg
	{
		OFFSET 6.626091 1.019270 -1.215050
		CHANNELS 3 Xrotation Yrotation Zrotation
		JOINT LeftUpLegRoll
		{
			OFFSET 0.000000 -0.000002 17.951797
			CHANNELS 3 Xrotation Yrotation Zrotation
			JOINT LeftLeg
			{
				OFFSET 0.000000 -0.000004 22.230301
				CHANNELS 3 Xrotation Yrotation Zrotation
				JOINT LeftLegRoll
				{
					OFFSET 0.000000 -0.000004 22.509293
					CHANNELS 3 Xrotation Yrotation Zrotation
					JOINT LeftFoot
					{
						OFFSET 0.000000 -0.000004 18.357498
						CHANNELS 3 Xrotation Yrotation Zrotation
						JOINT LeftToeBase
						{
							OFFSET 0.000000 -0.000002 15.518295
							CHANNELS 3 Xrotation Yrotation Zrotation
							End Site
							{
								OFFSET -0.029476 0.866261 7.515381
							}
						}
					}
				}
			}
		}
	}
}
MOTION
Frames: 13
Frame Time: 0.041667
41.323700 -21.753420 93.599602 1.198508 -2.178074 75.849954 -1.277581 0.404140 0.575138 1.443685 0.811863 1.155540 3.088690 0.825620 1.146083 -1.592522 14.542017 -0.012084 6.620552 -15.000084 -0.110670 -10.358557 -40.645219 -11.061408 85.645982 1.627995 97.910605 -0.000001 0.000012 -0.000008 42.334919 -4.473369 -1.166306 0.000013 0.000003 -3.004994 -4.999939 -7.998756 -0.000218 -18.297886 76.301170 21.677747 88.442405 55.948914 -88.501295 -0.000005 0.000005 0.000004 12.447212 17.545648 -1.416621 -0.000002 0.000007 3.007246 -5.000487 8.000680 0.000124 2.021990 176.846957 -2.378602 -179.999991 0.000005 -1.117005 172.433453 -2.278016 -0.498507 -0.000022 -0.000002 0.163723 71.634922 6.794668 2.195130 25.456952 -7.360301 0.000003 -9.218089 175.398930 1.253521 -0.000006 -0.000004 -0.956854 -11.319897 2.609748 0.633383 0.000004 -0.000003 -0.112543 67.407513 -6.888136 -2.259109 25.457070 7.349094 -0.000008 
41.297203 -21.752420 93.616798 1.196367 -2.184485 75.844811 -1.276913 0.404118 0.573529 1.445035 0.812732 1.152308 3.090041 0.826448 1.142867 -1.487266 14.478726 -0.021565 6.560162 -14.940277 -0.113439 -10.307480 -40.775335 -11.002968 85.619181 1.472995 97.601060 -0.000001 0.000012 -0.000010 42.187739 -4.555280 -1.127479 0.000011 0.000004 -3.004990 -4.999938 -7.998760 -0.000222 -18.164456 76.261664 21.534145 88.608775 55.995223 -88.755761 -0.000004 0.000004 0.000004 12.329959 17.485358 -1.390344 -0.000001 0.000010 3.007249 -5.000488 8.000682 0.000127 2.013151 176.842955 -2.382466 -179.999991 0.000005 -1.117004 172.432975 -2.277024 -0.498394 -0.000021 -0.000003 0.163711 71.632251 6.794688 2.195094 25.456957 -7.360300 0.000002 -9.238351 175.401157 1.256217 -0.000006 -0.000005 -0.956949 -11.353202 2.606267 0.634979 0.000004 -0.000003 -0.113237 67.412854 -6.888107 -2.259069 25.457070 7.349091 -0.000008 
41.278999 -21.751217 93.606003 1.194011 -2.190275 75.840337 -1.275980 0.403791 0.571986 1.446895 0.812850 1.149199 3.091902 0.826527 1.139785 -1.389511 14.421137 -0.030386 6.504657 -14.883788 -0.116406 -10.259403 -40.898978 -10.948006 85.595036 1.318460 97.296229 0.000000 0.000012 -0.000012 42.043912 -4.637136 -1.088742 0.000011 0.000005 -3.004990 -4.999937 -7.998759 -0.000218 -18.038612 76.226079 21.398691 88.770036 56.038731 -89.005179 -0.000003 0.000004 0.000003 12.212698 17.425138 -1.364262 0.000001 0.000009 3.007249 -5.000488 8.000684 0.000124 2.003518 176.837928 -2.386828 -179.999991 0.000005 -1.117004 172.431964 -2.275029 -0.499182 -0.000022 -0.000002 0.163700 71.630024 6.794733 2.195037 25.456953 -7.360304 0.000004 -9.259031 175.402413 1.258673 -0.000005 -0.000004 -0.957038 -11.385007 2.603193 0.636491 0.000004 -0.000003 -0.113874 67.417758 -6.888033 -2.259048 25.457071 7.349093 -0.000009 
41.255203 -21.746517 93.602501 1.191375 -2.195336 75.836547 -1.274721 0.403061 0.570509 1.449446 0.811988 1.146205 3.094452 0.825628 1.136808 -1.301151 14.370947 -0.038500 6.455317 -14.831674 -0.119675 -10.215321 -41.013985 -10.897747 85.574696 1.164544 96.996418 -0.000001 0.000010 -0.000009 41.903938 -4.718757 -1.050109 0.000007 0.000004 -3.004991 -4.999938 -7.998754 -0.000218 -17.922346 76.195808 21.273521 88.924214 56.079022 -89.247336 -0.000002 0.000004 0.000005 12.095670 17.365380 -1.338463 -0.000002 0.000009 3.007249 -5.000489 8.000680 0.000124 1.992981 176.832928 -2.391742 -179.999991 0.000005 -1.117004 172.430380 -2.273044 -0.498981 -0.000022 -0.000002 0.163695 71.628330 6.794768 2.195046 25.456953 -7.360304 0.000004 -9.280144 175.403698 1.260609 -0.000005 -0.000004 -0.957125 -11.415216 2.600612 0.637911 0.000004 -0.000003 -0.114449 67.421952 -6.888040 -2.258888 25.457070 7.349095 -0.000009 
41.220200 -21.741116 93.600410 1.188386 -2.199591 75.833521 -1.273022 0.401830 0.569095 1.452855 0.809924 1.143309 3.097860 0.823529 1.133941 -1.224060 14.329865 -0.045884 6.413436 -14.785404 -0.123347 -10.176215 -41.117971 -10.853336 85.559403 1.011313 96.703519 -0.000000 0.000013 -0.000010 41.768420 -4.799973 -1.011636 0.000010 0.000004 -3.004991 -4.999941 -7.998757 -0.000220 -17.817365 76.172093 21.160478 89.069587 56.115444 -89.480396 -0.000002 0.000005 0.000004 11.979208 17.306262 -1.313014 -0.000002 0.000010 3.007249 -5.000486 8.000682 0.000124 1.981475 176.826890 -2.397361 -179.999991 0.000005 -1.115993 172.428126 -2.271055 -0.498807 -0.000022 -0.000002 0.163692 71.627272 6.794786 2.195014 25.456955 -7.360302 0.000002 -9.301721 175.403984 1.262075 -0.000006 -0.000004 -0.957215 -11.443331 2.598630 0.639215 0.000004 -0.000003 -0.114949 67.425592 -6.887952 -2.258842 25.457071 7.349093 -0.000009 
41.199100 -21.740719 93.588509 1.184958 -2.202928 75.831356 -1.270812 0.400001 0.567745 1.457305 0.806433 1.140504 3.102308 0.820003 1.131191 -1.160141 14.299888 -0.052501 6.380281 -14.746235 -0.127521 -10.143146 -41.208925 -10.816053 85.550285 0.858838 96.418386 -0.000001 0.000014 -0.000010 41.637936 -4.880605 -0.973329 0.000007 0.000004 -3.004992 -4.999936 -7.998756 -0.000214 -17.725478 76.156165 21.061544 89.204169 56.147512 -89.702131 -0.000002 0.000004 0.000005 11.863642 17.248154 -1.288033 0.000002 0.000009 3.007250 -5.000482 8.000683 0.000127 1.968900 176.818872 -2.403824 -179.999991 0.000006 -1.115994 172.425202 -2.269048 -0.499657 -0.000022 -0.000002 0.163697 71.626746 6.794860 2.194957 25.456960 -7.360302 0.000004 -9.323784 175.403260 1.262950 -0.000006 -0.000004 -0.957296 -11.469044 2.597335 0.640388 0.000004 -0.000003 -0.115364 67.428420 -6.887933 -2.258761 25.457071 7.349094 -0.000008 
41.186100 -21.742317 93.588905 1.180812 -2.204625 75.830529 -1.268363 0.397577 0.566440 1.462243 0.801469 1.137751 3.107254 0.815008 1.128491 -1.106583 14.279445 -0.058603 6.354066 -14.712941 -0.132254 -10.114656 -41.289098 -10.784148 85.546043 0.706158 96.139905 0.000000 0.000011 -0.000010 41.511912 -4.961097 -0.934885 0.000008 0.000005 -3.004992 -4.999940 -7.998759 -0.000220 -17.643359 76.147628 20.973148 89.328547 56.175683 -89.914140 -0.000003 0.000004 0.000004 11.747766 17.190346 -1.263231 -0.000002 0.000007 3.007249 -5.000486 8.000680 0.000124 1.954554 176.809856 -2.411714 -179.999991 0.000005 -1.115994 172.421487 -2.266064 -0.499409 -0.000022 -0.000002 0.163698 71.626985 6.794886 2.194947 25.456953 -7.360304 0.000003 -9.347564 175.401607 1.263063 -0.000005 -0.000005 -0.957381 -11.493163 2.596682 0.641461 0.000004 -0.000003 -0.115697 67.430503 -6.887878 -2.258719 25.457070 7.349092 -0.000008 
41.158600 -21.740715 93.588707 1.175862 -2.204249 75.831035 -1.265950 0.394674 0.565175 1.467101 0.795263 1.135023 3.112110 0.808771 1.125828 -1.059165 14.265661 -0.064451 6.331958 -14.683406 -0.137490 -10.088551 -41.362772 -10.754992 85.544363 0.552349 95.863378 -0.000000 0.000012 -0.000006 41.389095 -5.041992 -0.896006 0.000007 0.000004 -3.004988 -4.999937 -7.998755 -0.000218 -17.566485 76.144738 20.890424 89.445651 56.200719 -90.120391 -0.000004 0.000004 0.000004 11.630383 17.132128 -1.238342 0.000001 0.000010 3.007250 -5.000484 8.000685 0.000126 1.938003 176.798818 -2.421404 -179.999991 0.000006 -1.115991 172.417088 -2.262073 -0.499055 -0.000022 -0.000001 0.163700 71.627839 6.794904 2.194999 25.456952 -7.360301 0.000002 -9.373987 175.398015 1.262593 -0.000005 -0.000004 -0.957466 -11.516688 2.596494 0.642470 0.000004 -0.000003 -0.115962 67.431951 -6.887833 -2.258620 25.457073 7.349094 -0.000007 
41.130306 -21.737820 93.582008 1.170254 -2.202163 75.832872 -1.263548 0.391363 0.563957 1.471949 0.787995 1.132353 3.116955 0.801472 1.123228 -1.017582 14.257646 -0.070063 6.313746 -14.656942 -0.143201 -10.064700 -41.430551 -10.728487 85.544998 0.397606 95.588996 0.000000 0.000014 -0.000009 41.269372 -5.123219 -0.856776 0.000009 0.000001 -3.004994 -4.999935 -7.998759 -0.000222 -17.494703 76.146883 20.813202 89.556416 56.222965 -90.321602 -0.000002 0.000004 0.000004 11.511813 17.073463 -1.213421 0.000001 0.000009 3.007248 -5.000486 8.000684 0.000127 1.919598 176.785800 -2.432559 -179.999991 0.000006 -1.115992 172.412006 -2.258078 -0.499724 -0.000021 -0.000002 0.163701 71.629246 6.794938 2.195020 25.456952 -7.360304 0.000005 -9.402533 175.393452 1.261530 -0.000005 -0.000004 -0.957547 -11.539415 2.596717 0.643413 0.000004 -0.000003 -0.116166 67.432784 -6.887804 -2.258562 25.457068 7.349092 -0.000009 
41.109200 -21.734219 93.574211 1.164155 -2.198740 75.835570 -1.261101 0.387712 0.562793 1.476877 0.779849 1.129744 3.121889 0.793298 1.120694 -0.981549 14.254595 -0.075442 6.299189 -14.633064 -0.149323 -10.042986 -41.493150 -10.704505 85.547682 0.242098 95.317612 -0.000000 0.000012 -0.000009 41.152744 -5.204701 -0.817234 0.000009 0.000002 -3.004991 -4.999937 -7.998753 -0.000219 -17.427540 76.153153 20.740959 89.661580 56.242848 -90.518209 -0.000002 0.000003 0.000006 11.392160 17.014455 -1.188462 0.000001 0.000010 3.007251 -5.000487 8.000681 0.000125 1.899691 176.771771 -2.444826 -179.999991 0.000005 -1.115995 172.406351 -2.253092 -0.500286 -0.000021 -0.000002 0.163704 71.631185 6.794997 2.194908 25.456959 -7.360301 0.000002 -9.432671 175.387933 1.260028 -0.000006 -0.000004 -0.957626 -11.561445 2.597326 0.644304 0.000004 -0.000003 -0.116315 67.433092 -6.887760 -2.258433 25.457071 7.349094 -0.000008 
41.073307 -21.729719 93.567902 1.157742 -2.194323 75.839033 -1.258578 0.383794 0.561688 1.481974 0.771007 1.127244 3.126983 0.784428 1.118267 -0.950778 14.255817 -0.080590 6.288059 -14.611279 -0.155786 -10.023332 -41.551483 -10.682992 85.552347 0.086017 95.048994 -0.000000 0.000014 -0.000009 41.038799 -5.286372 -0.777483 0.000010 0.000005 -3.004990 -4.999938 -7.998755 -0.000221 -17.364706 76.162838 20.673407 89.762107 56.260487 -90.710957 -0.000002 0.000003 0.000005 11.271947 16.955074 -1.163577 0.000001 0.000009 3.007250 -5.000489 8.000684 0.000126 1.878635 176.756744 -2.457872 -179.999991 0.000005 -1.115995 172.400122 -2.248103 -0.499870 -0.000022 -0.000002 0.163707 71.633651 6.795015 2.194861 25.456955 -7.360301 0.000002 -9.463887 175.382428 1.258080 -0.000005 -0.000004 -0.957706 -11.582476 2.598258 0.645138 0.000004 -0.000003 -0.116416 67.432859 -6.887700 -2.258438 25.457068 7.349093 -0.000008 
41.053600 -21.723017 93.567108 1.151159 -2.189309 75.842981 -1.255937 0.379679 0.560653 1.487321 0.761651 1.124855 3.132327 0.775046 1.115968 -0.924984 14.260618 -0.085495 6.280122 -14.591202 -0.162540 -10.005549 -41.605954 -10.663745 85.558583 -0.070434 94.783225 0.000000 0.000012 -0.000007 40.927439 -5.368174 -0.737576 0.000010 0.000004 -3.004993 -4.999938 -7.998756 -0.000222 -17.306050 76.175215 20.610378 89.859191 56.276398 -90.900816 -0.000001 0.000004 0.000005 11.151302 16.895503 -1.138805 0.000002 0.000011 3.007249 -5.000483 8.000683 0.000123 1.856781 176.741704 -2.471332 -179.999991 0.000005 -1.115993 172.393428 -2.243113 -0.500468 -0.000022 -0.000002 0.163715 71.636540 6.795018 2.194883 25.456953 -7.360301 0.000002 -9.495679 175.375940 1.256011 -0.000005 -0.000004 -0.957786 -11.602609 2.599481 0.645918 0.000004 -0.000003 -0.116479 67.432115 -6.887665 -2.258378 25.457068 7.349093 -0.000008 
41.048504 -21.728817 93.567902 1.144580 -2.184036 75.847325 -1.253117 0.375437 0.559692 1.492998 0.751964 1.122612 3.137999 0.765335 1.113803 -0.903881 14.268100 -0.090155 6.275152 -14.572135 -0.169533 -9.989578 -41.657559 -10.646717 85.566219 -0.227057 94.520256 0.000001 0.000011 -0.000007 40.818648 -5.450018 -0.697568 0.000008 0.000005 -3.004990 -4.999938 -7.998757 -0.000224 -17.251217 76.189483 20.551481 89.953400 56.290704 -91.088052 -0.000004 0.000005 0.000004 11.030415 16.835720 -1.114146 0.000000 0.000008 3.007248 -5.000483 8.000681 0.000123 1.834461 176.725667 -2.484914 -179.999991 0.000005 -1.115995 172.386311 -2.238120 -0.500084 -0.000021 -0.000002 0.163726 71.639771 6.795082 2.194800 25.456950 -7.360305 0.000003 -9.527514 175.369478 1.253805 -0.000004 -0.000004 -0.957860 -11.621640 2.600930 0.646646 0.000004 -0.000003 -0.116502 67.431049 -6.887595 -2.258229 25.457070 7.349093 -0.000008 
